<mxfile host="app.diagrams.net" modified="2023-10-09T13:44:57.688Z" agent="Mozilla/5.0 (Windows NT 10.0; Win64; x64) AppleWebKit/537.36 (KHTML, like Gecko) Chrome/117.0.0.0 Safari/537.36 Edg/117.0.2045.43" etag="deXy-hSh2HlkdCcAKEJv" version="21.7.2" type="github">
  <diagram name="第 1 页" id="-D_B1rd0_CC89eR2qVJ1">
    <mxGraphModel dx="2066" dy="1161" grid="1" gridSize="10" guides="1" tooltips="1" connect="1" arrows="1" fold="1" page="0" pageScale="1" pageWidth="827" pageHeight="1169" background="none" math="0" shadow="1">
      <root>
        <mxCell id="0" />
        <mxCell id="1" parent="0" />
      </root>
    </mxGraphModel>
  </diagram>
</mxfile>
